<mxfile host="app.diagrams.net" modified="2023-08-17T01:38:08.673Z" agent="Mozilla/5.0 (Macintosh; Intel Mac OS X 10_15_7) AppleWebKit/537.36 (KHTML, like Gecko) Chrome/113.0.0.0 Safari/537.36" version="21.2.3" etag="HspTobCWsC66Zzd5lieK" type="github">
  <diagram name="第 1 页" id="hym_TpLf_UjrkJ_JnFpB">
    <mxGraphModel>
      <root>
        <mxCell id="0" />
        <mxCell id="1" parent="0" />
      </root>
    </mxGraphModel>
  </diagram>
</mxfile>
